# xmcd
#
# Track frame offsets:
#	150
#	16377
#	27205
#	44445
#	56780
#	70795
#	84107
#	97462
#	109890
#	122610
#
# Disc length: 1824
#
# Revision: 1
# Processed by: cddbd v1.5.1PL0 Copyright (c) Steve Scherf et al.
# Submitted via: audiograbber 1.81.01
# Normalized: r0:DSETVAR1,TDELIM( - )
#
DISCID=83071e0a
DTITLE=Various Artist - Country Greats  Stand By Me
DYEAR=1900
DGENRE=
TTITLE0=Mickey Gilley - Stand By Me
TTITLE1=Janie Fricke - She's Single
TTITLE2=Eddy Raven - Joe Knows How to Live
TTITLE3=Gatlin Brothers - Broken Lady
TTITLE4=Moe Brandy - Bandy the Rodeo Clown
TTITLE5=Mickey Gilley - Room Full of Roses
TTITLE6=Janie Fricke - Your Hearts Not in It
TTITLE7=Eddy Raven - Bayou Boys
TTITLE8=Gatlin Brothers - All the Gold in California
TTITLE9=Moe Brandy - Someday Soon
EXTD=
EXTT0=
EXTT1=
EXTT2=
EXTT3=
EXTT4=
EXTT5=
EXTT6=
EXTT7=
EXTT8=
EXTT9=
PLAYORDER=
